<svg width="256" height="214" viewBox="0 0 256 214" fill="none" xmlns="http://www.w3.org/2000/svg">
<g opacity="0.24" clip-path="url(#clip0_792_808)">
<g filter="url(#filter0_f_792_808)">
<path d="M149.229 138.601C199.694 108.38 215.991 42.7798 185.77 -7.68583C155.549 -58.1514 90.0249 -74.753 39.5593 -44.5316C-10.9062 -14.3102 -27.2034 51.29 3.01798 101.756C33.2394 152.221 98.7632 168.823 149.229 138.601Z" fill="url(#paint0_radial_792_808)" fill-opacity="0.6"/>
</g>
<g filter="url(#filter1_f_792_808)" style="mix-blend-mode:color-dodge">
<path d="M43.0698 205.106C105.349 228.424 174.738 196.839 198.055 134.56L203.027 121.28C226.345 59.0011 194.76 -10.3882 132.481 -33.7055L119.698 -38.4918C57.4188 -61.8091 -11.9705 -30.2246 -35.2878 32.0542L-40.2601 45.3346C-63.5774 107.613 -31.9928 177.003 30.2859 200.32L43.0698 205.106Z" fill="url(#paint1_radial_792_808)"/>
</g>
<g filter="url(#filter2_f_792_808)" style="mix-blend-mode:color-dodge">
<path d="M-5.88516 136.151C36.3346 151.958 83.4344 130.387 99.2415 88.1672C115.049 45.9474 93.6967 -1.25197 51.4769 -17.0591C9.25717 -32.8663 -37.8426 -11.2954 -53.6498 30.9244C-69.4569 73.1441 -48.1049 120.344 -5.88516 136.151Z" fill="url(#paint2_radial_792_808)" fill-opacity="0.6"/>
</g>
</g>
<defs>
<filter id="filter0_f_792_808" x="-65.9727" y="-113.441" width="320.734" height="320.952" filterUnits="userSpaceOnUse" color-interpolation-filters="sRGB">
<feFlood flood-opacity="0" result="BackgroundImageFix"/>
<feBlend mode="normal" in="SourceGraphic" in2="BackgroundImageFix" result="shape"/>
<feGaussianBlur stdDeviation="26.9061" result="effect1_foregroundBlur_792_808"/>
</filter>
<filter id="filter1_f_792_808" x="-108.142" y="-106.374" width="379.052" height="379.362" filterUnits="userSpaceOnUse" color-interpolation-filters="sRGB">
<feFlood flood-opacity="0" result="BackgroundImageFix"/>
<feBlend mode="normal" in="SourceGraphic" in2="BackgroundImageFix" result="shape"/>
<feGaussianBlur stdDeviation="30.1025" result="effect1_foregroundBlur_792_808"/>
</filter>
<filter id="filter2_f_792_808" x="-106.908" y="-70.2899" width="259.408" height="259.671" filterUnits="userSpaceOnUse" color-interpolation-filters="sRGB">
<feFlood flood-opacity="0" result="BackgroundImageFix"/>
<feBlend mode="normal" in="SourceGraphic" in2="BackgroundImageFix" result="shape"/>
<feGaussianBlur stdDeviation="24.0233" result="effect1_foregroundBlur_792_808"/>
</filter>
<radialGradient id="paint0_radial_792_808" cx="0" cy="0" r="1" gradientUnits="userSpaceOnUse" gradientTransform="translate(82.4918 66.6185) rotate(-145.788) scale(111.291 111.523)">
<stop stop-color="#00E29A"/>
<stop offset="1" stop-color="#00E29A" stop-opacity="0"/>
</radialGradient>
<radialGradient id="paint1_radial_792_808" cx="0" cy="0" r="1" gradientUnits="userSpaceOnUse" gradientTransform="translate(148.956 65.042) rotate(153.257) scale(118.3 118.546)">
<stop stop-color="#7C75FF"/>
<stop offset="1" stop-color="#484EB7" stop-opacity="0"/>
<stop offset="1" stop-color="#9FA7FF" stop-opacity="0"/>
</radialGradient>
<radialGradient id="paint2_radial_792_808" cx="0" cy="0" r="1" gradientUnits="userSpaceOnUse" gradientTransform="translate(0.710402 85.8939) rotate(-134.681) scale(77.3089 77.47)">
<stop stop-color="#FFA35D"/>
<stop offset="1" stop-color="#FF9B5C" stop-opacity="0.7"/>
</radialGradient>
<clipPath id="clip0_792_808">
<rect width="214" height="256" fill="white" transform="matrix(-5.98511e-08 -1 -1 3.1924e-08 256 214)"/>
</clipPath>
</defs>
</svg>
