<svg width="502" height="200" viewBox="0 0 502 200" fill="none" xmlns="http://www.w3.org/2000/svg">
<path d="M204.318 70.839C207.176 70.2703 217.45 71.2421 220.671 72.0289C231.838 74.7574 240.939 81.6157 243.834 93.1875C245.092 98.2203 244.96 104.998 245.007 110.266L244.98 133.946C244.987 138.624 244.7 142.933 245.94 147.523C246.956 151.283 252.64 151.487 251.744 154.966C249.816 155.339 245.947 154.542 243.956 154.841C241.31 155.276 238.965 156.286 236.253 156.525C227.137 157.329 223.651 151.562 222.987 143.284C218.339 150.072 213.522 153.353 205.689 155.815C193.74 159.57 174.862 155.971 170.903 142.35C170.362 140.973 170.006 139.259 169.932 137.76C169.038 119.734 180.546 114.828 195.493 110.564C203.494 108.268 214.463 107.974 220.127 101.163C225.139 95.1361 223.979 82.0441 217.872 77.0497C213.827 73.7415 204.963 72.5068 201.122 76.7281C198.622 80.4808 202.198 85.1748 202.711 89.364C204.129 100.946 191.71 105.436 182.968 99.4409C177.058 95.3885 176.866 85.4081 181.653 79.9381C187.72 73.0059 195.566 71.5905 204.318 70.839ZM198.357 145.325C202.219 147.956 205.584 149.299 210.377 148.402C213.897 147.769 217.01 145.74 219.009 142.775C225.273 133.598 222.395 116.922 222.984 106.231L222.723 105.788L222.477 105.776C219.872 107.291 217.336 108.789 214.613 110.102C207.756 113.407 199.486 116.354 195.887 123.632C192.732 130.011 192.809 140.213 198.357 145.325Z" fill="white"/>
<path d="M408.732 70.8365C410.845 70.33 421.496 71.4083 423.813 71.8467C435.532 74.0661 445.59 83.0237 447.72 94.9843C448.607 99.9635 448.382 107.202 448.382 112.426L448.423 133.197C448.435 137.945 448.071 143.465 449.672 147.981C450.184 149.422 452.058 150.518 451.717 152.123C451.129 152.795 450.573 153.232 449.738 153.577C443.787 156.041 437.013 158.786 431.138 154.523C427.548 151.917 426.654 148.313 426 144.084C424.408 145.895 422.419 148.242 420.717 149.804C416.294 153.685 409.574 156.404 403.79 157.062C390.011 158.629 375.327 153.574 373.755 137.937C372.533 111.19 398.914 111.698 417.259 106.135C420.678 104.875 424.435 101.414 425.858 98.0631C427.467 94.272 426.926 86.5224 425.324 82.7278C421.702 74.1486 413.75 72.3598 405.572 75.8626C402.061 81.423 405.795 83.2923 406.599 89.0732C407.01 92.2154 406.163 95.3936 404.24 97.9131C400.273 103.112 390.949 103.091 386.605 99.3943C378.168 92.2154 382.392 79.2328 391.586 74.9018C398.524 71.6347 401.867 71.6289 408.732 70.8365ZM401.735 145.459C407.088 150.173 416.588 149.564 421.361 144.276C426.042 139.094 426.617 130.622 426.409 123.985C426.333 121.592 426.688 107.292 425.995 106.215L425.442 106.218C423.308 107.351 420.651 109.186 418.616 110.087C410.302 113.766 400.983 116.606 398.453 126.548C396.597 133.838 396.93 139.548 401.735 145.459Z" fill="white"/>
<path d="M82.4129 70.5894C83.3088 70.4861 84.4297 70.4778 85.3478 70.4717C98.7414 70.3828 118.12 77.1613 117.802 93.5375C117.731 97.0279 116.261 100.344 113.723 102.742C103.316 112.631 85.6207 101.388 91.7144 87.5172C93.7297 82.9302 96.5 77.5 92.1596 75.6736C88.1961 74.4215 82.1151 74.0237 78.3247 76.3552C62.7604 85.7934 61.9897 109.911 65.6152 125.859C69.5704 143.257 87.0208 153.981 103.736 145.111C109.001 142.699 114.051 137.423 117.02 132.55C118.698 129.796 118.43 127.296 122.729 127.442C123.21 127.458 123.195 127.614 123.467 127.975C123.523 129.373 118.05 138.586 117.038 139.919C109.884 149.163 99.4002 155.249 87.8216 156.879C71.9989 159.054 55.1375 153.224 46.4099 139.843C34.0432 120.883 37.7349 92.8636 56.2873 79.3537C66.0894 72.2159 71.2167 72.0183 82.4129 70.5894Z" fill="white"/>
<path d="M157.044 31.6003C158.194 31.7249 158.356 32.9395 158.347 33.8923C158.29 39.9645 158.025 46.0453 158.033 52.118L157.988 118.441C157.986 124.994 157.007 141.988 159.013 147.308C161.026 152.643 165.113 150.612 166.996 153.725C167.065 154.671 167.136 154.311 166.654 155.17C165.671 155.854 132.873 155.46 128.513 155.435C127.595 155.509 127.418 155.205 126.888 154.61C126.485 152.558 129.037 151.761 130.683 151.376C136.577 149.997 135.768 140.67 135.812 136.031L135.909 119.999L135.919 85.2475C135.926 77.0088 135.971 68.7006 135.801 60.469C135.761 58.5395 135.45 53.5792 134.903 51.905C133.198 46.6869 129.536 48.318 126.667 45.4881C126.338 45.1638 126.573 44.4047 126.68 43.977C127.428 43.061 132.797 41.9917 134.425 41.528C139.246 40.1555 144.329 38.4171 148.826 36.1883C152.474 34.3809 152.534 32.6556 157.044 31.6003Z" fill="white"/>
<path d="M336.924 92.8485C343.019 80.1028 345.931 70.9427 362.423 70.9951C377.09 71.0419 381.183 89.4179 369.677 96.9082C364.238 100.449 355.223 99.2867 351.811 93.4541C349.497 89.5092 349.818 86.1775 350.868 81.9907C348.865 82.5339 347.077 83.2355 345.667 84.8274C337.563 93.9706 336.733 113.257 336.733 124.663C336.676 129.63 336.608 134.663 336.745 139.649C337.017 143.226 337.039 148.304 340.178 150.675C341.775 151.881 347.528 151.617 345.845 155.055C345.642 155.471 344.501 155.586 344.09 155.582C332.256 155.464 320.41 155.74 308.574 155.751C307.454 155.753 306.568 155.747 305.765 154.914L305.794 154.376C306.911 152.268 310.097 151.129 311.995 149.734C313.611 148.545 313.876 146.479 314.15 144.583C314.902 139.362 314.814 94.2215 313.354 90.6426C311.28 85.5537 307.883 86.4012 305.914 83.5366C305.547 83.0024 305.593 82.7322 305.72 82.1234C306.747 80.9706 312.921 79.8042 314.907 79.2169C319.207 77.9053 323.4 76.2595 327.446 74.295C330.03 73.0644 331.683 71.8237 334.47 71.0328C335.408 71.06 335.635 70.9177 336.348 71.3633C337.002 73.4232 336.495 82.6445 336.544 85.4188C336.588 87.9638 336.684 90.1483 336.924 92.8485Z" fill="white"/>
<path d="M288.803 75.649L289.733 75.6735C290.468 76.2767 290.627 77.2118 290.62 78.1601C290.583 83.3743 290.497 88.6957 290.495 93.9033L290.529 132.051C290.551 136.969 290.225 142.037 291.154 146.909C292.089 151.801 299.745 151.646 299.01 155.072C297.952 155.985 286.723 155.581 284.671 155.596C276.207 155.727 267.743 155.768 259.279 155.718C258.878 155.185 258.846 154.933 258.684 154.306C259.346 151.532 267.347 152.221 267.513 144.305C267.822 129.768 268.275 114.951 267.011 100.451C266.244 91.6341 261.525 94.3841 258.518 92.1413C257.945 91.4911 258.092 90.3841 258.094 89.473C264.704 88.5327 275.766 83.8363 281.82 80.4446C284.203 79.109 285.734 76.3897 288.803 75.649Z" fill="white"/>
<path d="M276.268 33.5403C285.829 32.9701 294.061 40.2215 294.695 49.7755C295.329 59.3295 288.129 67.6042 278.575 68.3021C268.931 69.0066 260.555 61.727 259.916 52.0822C259.277 42.4374 266.614 34.1158 276.268 33.5403Z" fill="#7AC7A9"/>
</svg>
